<?xml version="1.0" encoding="utf-8"?>

<!DOCTYPE svg PUBLIC "-//W3C//DTD SVG 1.0//EN"    "http://www.w3.org/TR/2001/REC-SVG-20010904/DTD/svg10.dtd">

<svg  
    xmlns="http://www.w3.org/2000/svg" 
    xmlns:xlink="http://www.w3.org/1999/xlink" 
    width="1059.674" 
    height="464.977" 
    viewBox="0 0 1059.674 464.977" 
    overflow="visible" 
    enable-background="new 0 0 1059.674 464.977" 
    xml:space="preserve"
>

<g id="Muenchen_S5">

  <path id="Ei" fill="#FFCC00" d="M787.5,0H272.173C143.773,0,0,104.088,0,232.488c0,128.4,143.773,232.488,272.173,232.488H787.5
  	c128.4,0,272.174-104.088,272.174-232.488C1059.674,104.088,915.901,0,787.5,0z"/>

  <g id="Univers_75_Black_504pt">
    <path id="S" d="M303.042,299.124c0.504,14.616,1.512,56.448,61.487,56.448c8.568,0,53.928,0,53.928-41.328
    	c0-17.137-7.056-28.729-31.248-35.28l-89.208-23.184c-25.2-6.552-90.216-23.688-90.216-99.792
    	c0-58.968,44.352-113.904,153.215-113.904c142.127,0,148.175,77.112,148.679,115.919H407.37
    	c0-11.088,0.504-50.399-47.879-50.399c-29.232,0-47.88,16.632-47.88,38.304c0,26.712,22.176,33.264,36.792,37.296l68.04,17.64
    	c48.384,12.6,105.84,27.72,105.84,104.832c0,81.145-69.552,117.432-160.776,117.432c-37.8,0-98.783-6.048-132.047-43.344
    	c-26.712-29.232-27.216-65.016-27.72-80.64H303.042z"/>
    <path id="5" d="M665.411,315.251c1.008,26.712,19.152,39.816,43.344,39.816c25.199,0,34.775-12.601,40.32-22.681
    	c6.047-12.096,7.559-27.72,7.559-36.792c0-27.72-11.088-54.432-45.359-54.432c-24.191,0-37.295,15.12-39.814,30.744
    	l-96.768-1.008l7.055-205.127h252v68.544H669.442l-6.047,85.679c5.543-9.072,13.607-22.176,36.287-32.76
    	c14.617-7.56,30.24-10.584,46.873-10.584c50.398,0,108.359,30.744,108.359,115.416c0,21.672-5.041,66.527-38.305,97.271
    	c-30.24,28.224-72.576,33.264-102.814,33.264c-28.729,0-87.697-5.04-119.449-39.816c-23.688-25.703-24.695-51.911-25.199-67.535
    	H665.411z"/>
  </g>

</g>

</svg>
